<svg id="visual" viewBox="0 0 900 600" width="900" height="600" xmlns="http://www.w3.org/2000/svg" xmlns:xlink="http://www.w3.org/1999/xlink" version="1.1"><rect x="0" y="0" width="900" height="600" fill="#f2f2f2"></rect><g transform="translate(420.713436387265 270.66177997309296)"><path d="M167 -170C228.5 -147.3 298.9 -106.2 292.9 -63.1C286.8 -20 204.3 25.2 162.4 89.9C120.4 154.6 119 238.9 82.1 272.8C45.3 306.7 -27.1 290.1 -76.8 253.5C-126.4 217 -153.3 160.5 -177.7 107.7C-202.2 54.9 -224.2 5.7 -231.9 -56.5C-239.6 -118.8 -232.9 -194.2 -191.9 -220.5C-150.8 -246.8 -75.4 -223.9 -11.4 -210.3C52.7 -196.8 105.4 -192.6 167 -170" fill="#c6b0b0"></path></g></svg>